<?xml version="1.0" encoding="UTF-8" standalone="no"?>
<svg xmlns:svg="http://www.w3.org/2000/svg" xmlns="http://www.w3.org/2000/svg" version="1.1" x="0px" y="0px" width="40" height="32" viewBox="0 0 40 32">
  <g transform="matrix(0.93153346,0,0,0.93153346,-49.375152,-624.75336)" style="opacity:0.75">
    <path style="color:#000000;text-indent:0;text-transform:none;block-progression:tb;fill:#64d6d6;fill-opacity:1" d="m 90,694 -1e-5,-1 c -3e-5,-0.26531 -0.0931,-0.53058 -0.28124,-0.71876 l -3,-3 -0.281,-0.28 -0.87499,0 -0.28126,0.28126 -3,3 c -0.18821,0.18818 -0.28121,0.45347 -0.28121,0.71876 l -1e-5,1 1,0 c 0.26531,4e-5 0.53059,-0.0931 0.71877,-0.28121 l 2.2812,-2.2813 2.2812,2.2812 c 0.18817,0.18815 0.45345,0.28125 0.71875,0.28125 l 1,0 z"/>
    <path style="color:#000000;text-indent:0;text-transform:none;block-progression:tb;fill:#64d6d6;fill-opacity:1" d="m 85,691 0,7 2,0 0,-7 -2,0 z"/>
    <path style="color:#000000;text-indent:0;text-transform:none;block-progression:tb;fill:#64d6d6;fill-opacity:1" d="m 96,695 -1e-5,1 c -3e-5,0.26531 -0.0931,0.53058 -0.28124,0.71876 l -3,3 -0.281,0.28 -0.87499,0 -0.28126,-0.28126 -3,-3 c -0.18821,-0.18818 -0.28121,-0.45347 -0.28121,-0.71876 l -1e-5,-1 1,0 c 0.26531,-4e-5 0.53059,0.0931 0.71877,0.28121 l 2.2812,2.2813 2.2812,-2.2812 c 0.18817,-0.18815 0.45345,-0.28125 0.71875,-0.28125 l 1,0 z"/>
    <path style="color:#000000;text-indent:0;text-transform:none;block-progression:tb;fill:#64d6d6;fill-opacity:1" d="m 91,691 0,7 2,0 0,-7 -2,0 z"/>
  </g>
</svg>

