<?xml version="1.0" encoding="UTF-8" standalone="no"?>
<svg xmlns:svg="http://www.w3.org/2000/svg" xmlns="http://www.w3.org/2000/svg" version="1.1" x="0px" y="0px" width="40" height="32" viewBox="0 0 40 32">
  <g transform="matrix(0.71494038,0,0,0.71494038,-329.49277,-256.01664)" style="opacity:0.75">
    <path style="color:#bebebe;text-indent:0;text-transform:none;block-progression:tb;fill:#649cd6;fill-opacity:1" d="m 515.9,383 c -0.0423,0.008 -0.0841,0.0181 -0.125,0.0312 -0.44715,0.10014 -0.79228,0.5419 -0.78125,1 l 0,1.6875 c 0.004,1.3126 0.004,1.3126 -1.5625,1.3125 l -1.4375,0 c -0.52358,5e-5 -0.99995,0.47642 -1,1 -0.008,0.0726 -0.008,0.14613 0,0.21875 l 0,0.78125 6,0 0,-1 0,-4 c 0.006,-0.0623 0.006,-0.12518 0,-0.1875 l 0,-0.8125 -0.8125,0 C 516.08965,383.0076 515.9946,382.997 515.9,383 Z"/>
    <path style="color:#bebebe;text-indent:0;text-transform:none;block-progression:tb;fill:#649cd6;fill-opacity:1" d="m 501,389 0,1 0,4 c -0.006,0.0623 -0.006,0.12518 0,0.1875 l 0,0.8125 0.8125,0 c 0.0916,0.0236 0.18665,0.0342 0.28125,0.0312 0.0423,-0.008 0.0841,-0.0181 0.125,-0.0312 0.44715,-0.10014 0.79228,-0.5419 0.78125,-1 l 0,-1.6875 c 0,-1.31 0,-1.31 1.57,-1.31 l 1.4375,0 c 0.52358,-5e-5 0.99995,-0.47642 1,-1 0.008,-0.0726 0.008,-0.14613 0,-0.21875 l 0,-0.78125 z"/>
    <path style="color:#000000;text-indent:0;text-transform:none;block-progression:tb;fill:#649cd6;fill-opacity:1" d="m 509,382 c -3.1532,0 -5.8195,2.1257 -6.6875,5 l 2.0938,0 c 0.7734,-1.765 2.5382,-3 4.5938,-3 2.0556,0 3.8204,1.235 4.5938,3 l 2.0938,0 c -0.86802,-2.8743 -3.5343,-5 -6.6875,-5 z m -6.6875,9 c 0.86802,2.8743 3.5343,5 6.6875,5 3.1532,0 5.8195,-2.1257 6.6875,-5 l -2.0938,0 c -0.7734,1.765 -2.5382,3 -4.5938,3 -2.0556,0 -3.8204,-1.235 -4.5938,-3 l -2.0938,0 z"/>
  </g>
</svg>

