<?xml version="1.0" encoding="UTF-8" standalone="no"?>
<svg
  xmlns:dc="http://purl.org/dc/elements/1.1/"
  xmlns:cc="http://creativecommons.org/ns#"
  xmlns:rdf="http://www.w3.org/1999/02/22-rdf-syntax-ns#"
  xmlns:svg="http://www.w3.org/2000/svg"
  xmlns="http://www.w3.org/2000/svg"
  version="1.1"
  id="Layer_1"
  x="0px"
  y="0px"
  width="40"
  height="32"
  viewBox="0 0 40 32"
  enable-background="new 0 0 465 420"
  xml:space="preserve"><metadata
     id="metadata31"><rdf:RDF><cc:Work
         rdf:about=""><dc:format>image/svg+xml</dc:format><dc:type
           rdf:resource="http://purl.org/dc/dcmitype/StillImage" /><dc:title></dc:title></cc:Work></rdf:RDF></metadata><defs
     id="defs29" /><g
     id="layer15"
     transform="matrix(0.66854369,0,0,0.66854369,-321.67026,-236.63644)" /><g
     id="layer15-5"
     transform="matrix(0.68053664,0,0,0.68053664,-340.4529,-240.55979)" /><g
     id="layer12"
     transform="matrix(0.93153346,0,0,0.93153346,-49.375152,-624.75336)"
     style="opacity:0.75"><path
       id="path3613-6-6-9"
       style="color:#000000;text-indent:0;text-transform:none;block-progression:tb;fill:#64d6d6;fill-opacity:1"
       d="m 90,694 -1e-5,-1 c -3e-5,-0.26531 -0.0931,-0.53058 -0.28124,-0.71876 l -3,-3 -0.281,-0.28 -0.87499,0 -0.28126,0.28126 -3,3 c -0.18821,0.18818 -0.28121,0.45347 -0.28121,0.71876 l -1e-5,1 1,0 c 0.26531,4e-5 0.53059,-0.0931 0.71877,-0.28121 l 2.2812,-2.2813 2.2812,2.2812 c 0.18817,0.18815 0.45345,0.28125 0.71875,0.28125 l 1,0 z" /><path
       id="path35770-1"
       style="color:#000000;text-indent:0;text-transform:none;block-progression:tb;fill:#64d6d6;fill-opacity:1"
       d="m 85,691 0,7 2,0 0,-7 -2,0 z" /><path
       id="path3613-6-6-9-5"
       style="color:#000000;text-indent:0;text-transform:none;block-progression:tb;fill:#64d6d6;fill-opacity:1"
       d="m 96,695 -1e-5,1 c -3e-5,0.26531 -0.0931,0.53058 -0.28124,0.71876 l -3,3 -0.281,0.28 -0.87499,0 -0.28126,-0.28126 -3,-3 c -0.18821,-0.18818 -0.28121,-0.45347 -0.28121,-0.71876 l -1e-5,-1 1,0 c 0.26531,-4e-5 0.53059,0.0931 0.71877,0.28121 l 2.2812,2.2813 2.2812,-2.2812 c 0.18817,-0.18815 0.45345,-0.28125 0.71875,-0.28125 l 1,0 z" /><path
       id="path35770-1-5"
       style="color:#000000;text-indent:0;text-transform:none;block-progression:tb;fill:#64d6d6;fill-opacity:1"
       d="m 91,691 0,7 2,0 0,-7 -2,0 z" /></g></svg>