<?xml version="1.0" encoding="UTF-8" standalone="no"?>
<svg
   version="1.1"
   id="Layer_1"
   x="0px"
   y="0px"
   width="20"
   height="20"
   viewBox="0 0 20 20"
   enable-background="new 0 0 465 420"
   xml:space="preserve"
   sodipodi:docname="syncthing-working2.svg"
   inkscape:version="1.4 (e7c3feb100, 2024-10-09)"
   xmlns:inkscape="http://www.inkscape.org/namespaces/inkscape"
   xmlns:sodipodi="http://sodipodi.sourceforge.net/DTD/sodipodi-0.dtd"
   xmlns="http://www.w3.org/2000/svg"
   xmlns:svg="http://www.w3.org/2000/svg"
   xmlns:rdf="http://www.w3.org/1999/02/22-rdf-syntax-ns#"
   xmlns:cc="http://creativecommons.org/ns#"
   xmlns:dc="http://purl.org/dc/elements/1.1/"><defs
   id="defs1" /><sodipodi:namedview
   id="namedview1"
   pagecolor="#000000"
   bordercolor="#000000"
   borderopacity="0.25"
   inkscape:showpageshadow="2"
   inkscape:pageopacity="0.0"
   inkscape:pagecheckerboard="0"
   inkscape:deskcolor="#d1d1d1"
   inkscape:zoom="29.376358"
   inkscape:cx="18.211924"
   inkscape:cy="12.356876"
   inkscape:window-width="3840"
   inkscape:window-height="2091"
   inkscape:window-x="0"
   inkscape:window-y="0"
   inkscape:window-maximized="1"
   inkscape:current-layer="Layer_1" /><metadata
   id="metadata31"><rdf:RDF><cc:Work
       rdf:about=""><dc:format>image/svg+xml</dc:format><dc:type
         rdf:resource="http://purl.org/dc/dcmitype/StillImage" /></cc:Work></rdf:RDF></metadata>
           <g
   id="layer3"
   transform="translate(-119.92637,-12.034041)"><g
     id="g3-5-0-4"
     transform="matrix(0.04382354,0,0,0.04382354,120.10548,12.786116)"><circle
       cx="345"
       cy="357"
       r="30"
       id="circle5-7-9" /><circle
       cx="40"
       cy="257"
       r="30"
       id="circle7-2-6" /><circle
       cx="395"
       cy="126"
       r="30"
       id="circle9-7-1" /><g
       id="g11-0-4"><path
         d="m 15,210 c 0,1.23 0.01,2.45 0.03,3.67 C 22.38,209.43 30.91,207 40,207 c 5.23,0 10.26,0.8 15,2.29 C 55.38,115.73 131.35,40 225,40 276.2,40 322.11,62.63 353.27,98.44 360.86,86.97 373.05,78.82 387.2,76.6 348.68,29.83 290.33,0 225,0 109.02,0 15,94.02 15,210 Z m 376.58,-34.11 c 2.24,11.02 3.42,22.43 3.42,34.11 0,37.43 -12.09,72.03 -32.59,100.11 13.14,4.89 23.67,15.13 28.94,28.09 C 418.72,302.73 435,258.27 435,210 c 0,-16.46 -1.89,-32.47 -5.47,-47.83 -8.98,8.57 -21.14,13.83 -34.53,13.83 -1.15,0 -2.29,-0.04 -3.42,-0.11 z M 38.68,306.98 C 73.72,374.15 144,420 225,420 c 33.13,0 64.47,-7.67 92.34,-21.34 C 305.9,391.05 297.78,378.86 295.59,364.7 274.09,374.53 250.18,380 225,380 160.75,380 104.83,344.36 75.93,291.77 66.84,301.16 54.1,307 40,307 c -0.44,0 -0.88,0 -1.32,-0.02 z"
         id="path13-5-97-4" /><path
         d="M 215.4,220.65 84.31,233.81 c 3.63,6.93 5.69,14.82 5.69,23.19 0,5.87 -1.01,11.49 -2.86,16.73 L 219.09,259.92 C 215.21,252.82 213,244.67 213,236 c 0,-5.35 0.84,-10.51 2.4,-15.35 z"
         id="path15-1-6" /><path
         d="m 346.59,138.55 -62.05,52.32 c 12.59,6.02 22.27,17.15 26.35,30.71 l 60.84,-51.31 c -12.31,-6.48 -21.58,-17.95 -25.14,-31.72 z"
         id="path17-9-2-1" /><path
         d="m 334.26,308.16 -29.84,-44.14 c -7.74,11.41 -20.06,19.45 -34.31,21.48 l 31.51,46.62 c 6.91,-12.03 18.68,-20.9 32.64,-23.96 z"
         id="path19-5-1-6" /></g></g></g><g
   id="layer1"
   style="display:inline"
   transform="translate(-119.92637,-12.034041)"><circle
     cx="131.64755"
     cy="23.15181"
     r="1.6"
     id="circle21-0-6" /><circle
     cx="121.87488"
     cy="24.072105"
     r="1.6"
     id="circle23-78-3" /><circle
     cx="135.24109"
     cy="28.45446"
     r="1.6"
     id="circle25-7-4" /><circle
     cx="137.43224"
     cy="18.331223"
     r="1.6"
     id="circle27-6-0" /></g><g
   id="layer4"
   style="display:inline"
   transform="translate(-0.2723278,-12)"><circle
     cx="15.570126"
     cy="28.396469"
     r="1.6"
     id="circle34-1-7" /><circle
     cx="11.976604"
     cy="23.093821"
     r="1.6"
     id="circle41-3-2" /><circle
     cx="17.761318"
     cy="18.273228"
     r="1.6"
     id="circle48-3-5" /><circle
     cx="2.203968"
     cy="24.014116"
     r="1.6"
     id="circle55-5-9" /></g><path
   sodipodi:type="star"
   id="path1"
   inkscape:flatsided="true"
   sodipodi:sides="3"
   sodipodi:cx="10.008048"
   sodipodi:cy="9.3953104"
   sodipodi:r1="2.6946182"
   sodipodi:r2="1.3473091"
   sodipodi:arg1="0"
   sodipodi:arg2="1.0471976"
   inkscape:rounded="0"
   inkscape:randomized="0"
   d="m 12.702666,9.3953104 -4.0419271,2.3336076 0,-4.6672154 z"
   inkscape:transform-center-x="-0.78479024"
   transform="matrix(1.1649734,0,0,1.1649734,5.2147915,6.3369991)" /></svg>
