<?xml version="1.0" encoding="UTF-8" standalone="no"?>
<svg xmlns:svg="http://www.w3.org/2000/svg" xmlns="http://www.w3.org/2000/svg" version="1.1" x="0px" y="0px" width="20" height="20" viewBox="0 0 20 20">
    <mask id="mask">
        <rect x="5" y="5" width="10" height="10" style="fill:none; stroke:#ffffff; stroke-width:10px"/>
        <g style="fill:none; stroke:#000000; stroke-width:2.4px" transform="translate(13.5,13.5)">
            <rect y="0.5" x="0.5" height="6" width="2" />
            <rect y="0.5" x="4.5" height="6" width="2" />
        </g>
    </mask>
    <g mask="url(#mask)">
        <g transform="scale(1.05) translate(-0.25,-12.5)" style="fill:#000000">
            <g transform="matrix(0.04382354,0,0,0.04382354,0.1381909,12.796739)" style="opacity:0.3">
                <path d="m 15,210 c 0,1.23 0.01,2.45 0.03,3.67 C 22.38,209.43 30.91,207 40,207 c 5.23,0 10.26,0.8 15,2.29 C 55.38,115.73 131.35,40 225,40 276.2,40 322.11,62.63 353.27,98.44 360.86,86.97 373.05,78.82 387.2,76.6 348.68,29.83 290.33,0 225,0 109.02,0 15,94.02 15,210 Z m 376.58,-34.11 c 2.24,11.02 3.42,22.43 3.42,34.11 0,37.43 -12.09,72.03 -32.59,100.11 13.14,4.89 23.67,15.13 28.94,28.09 C 418.72,302.73 435,258.27 435,210 c 0,-16.46 -1.89,-32.47 -5.47,-47.83 -8.98,8.57 -21.14,13.83 -34.53,13.83 -1.15,0 -2.29,-0.04 -3.42,-0.11 z M 38.68,306.98 C 73.72,374.15 144,420 225,420 c 33.13,0 64.47,-7.67 92.34,-21.34 C 305.9,391.05 297.78,378.86 295.59,364.7 274.09,374.53 250.18,380 225,380 160.75,380 104.83,344.36 75.93,291.77 66.84,301.16 54.1,307 40,307 c -0.44,0 -0.88,0 -1.32,-0.02 z"/>
                <path d="M 215.4,220.65 84.31,233.81 c 3.63,6.93 5.69,14.82 5.69,23.19 0,5.87 -1.01,11.49 -2.86,16.73 L 219.09,259.92 C 215.21,252.82 213,244.67 213,236 c 0,-5.35 0.84,-10.51 2.4,-15.35 z"/>
                <path d="m 346.59,138.55 -62.05,52.32 c 12.59,6.02 22.27,17.15 26.35,30.71 l 60.84,-51.31 c -12.31,-6.48 -21.58,-17.95 -25.14,-31.72 z"/>
                <path d="m 334.26,308.16 -29.84,-44.14 c -7.74,11.41 -20.06,19.45 -34.31,21.48 l 31.51,46.62 c 6.91,-12.03 18.68,-20.9 32.64,-23.96 z"/>
            </g>
            <circle cx="11.680243" cy="23.162436" r="1.6"/>
            <circle style="opacity:0.3" cx="1.9075918" cy="24.082727" r="1.6"/>
            <circle style="opacity:0.3" cx="15.273778" cy="28.465082" r="1.6"/>
            <circle style="opacity:0.3" cx="17.464949" cy="18.341843" r="1.6"/>
        </g>
    </g>
    <g style="stroke:none; fill:#000000" transform="translate(13.5,13.5)">
        <rect y="0.5" x="0.5" height="6" width="2" />
        <rect y="0.5" x="4.5" height="6" width="2" />
    </g>
</svg>

