<?xml version="1.0" encoding="UTF-8" standalone="no"?>
<!-- Generator: Adobe Illustrator 13.0.0, SVG Export Plug-In . SVG Version: 6.00 Build 14948)  -->

<svg
   xmlns:dc="http://purl.org/dc/elements/1.1/"
   xmlns:cc="http://creativecommons.org/ns#"
   xmlns:rdf="http://www.w3.org/1999/02/22-rdf-syntax-ns#"
   xmlns:svg="http://www.w3.org/2000/svg"
   xmlns="http://www.w3.org/2000/svg"
   xmlns:sodipodi="http://sodipodi.sourceforge.net/DTD/sodipodi-0.dtd"
   xmlns:inkscape="http://www.inkscape.org/namespaces/inkscape"
   version="1.1"
   id="Layer_1"
   x="0px"
   y="0px"
   width="40"
   height="32"
   viewBox="0 0 40 32"
   enable-background="new 0 0 465 420"
   xml:space="preserve"
   inkscape:version="0.91 r13725"
   sodipodi:docname="icon-erroneous.svg"><metadata
     id="metadata31"><rdf:RDF><cc:Work
         rdf:about=""><dc:format>image/svg+xml</dc:format><dc:type
           rdf:resource="http://purl.org/dc/dcmitype/StillImage" /><dc:title></dc:title></cc:Work></rdf:RDF></metadata><defs
     id="defs29" /><sodipodi:namedview
     pagecolor="#ffffff"
     bordercolor="#666666"
     borderopacity="1"
     objecttolerance="10"
     gridtolerance="10"
     guidetolerance="10"
     inkscape:pageopacity="0"
     inkscape:pageshadow="2"
     inkscape:window-width="1920"
     inkscape:window-height="1163"
     id="namedview27"
     showgrid="false"
     inkscape:zoom="12.714453"
     inkscape:cx="20.225506"
     inkscape:cy="15.488376"
     inkscape:window-x="0"
     inkscape:window-y="0"
     inkscape:window-maximized="1"
     inkscape:current-layer="Layer_1"
     borderlayer="false" /><g
     id="layer15-3"
     transform="matrix(0.80899128,0,0,0.80899128,-345.93421,-293.33793)"
     style="opacity:0.75"><g
       id="g35541"
       transform="translate(115.81,-581.18)"><path
         inkscape:connector-curvature="0"
         id="path35543"
         d="m 70,823 c -3.866,0 -7,3.134 -7,7 0,3.866 3.134,7 7,7 3.866,0 7,-3.134 7,-7 0,-3.866 -3.134,-7 -7,-7 z m -0.09375,1.9688 a 1.0001,1.0001 0 0 1 1.094,1.03 l 0,5 a 1.0001,1.0001 0 1 1 -2,0 l 0,-5 a 1.0001,1.0001 0 0 1 0.78125,-1 1.0001,1.0001 0 0 1 0.125,-0.0313 z m 0.094,8.03 c 0.55228,0 1,0.44772 1,1 0,0.55228 -0.44772,1 -1,1 -0.55228,0 -1,-0.44772 -1,-1 0,-0.55228 0.44772,-1 1,-1 z"
         style="fill:#ff3232;fill-opacity:1"
         transform="translate(284.19,141.18)" /></g></g></svg>